<?xml version="1.0" encoding="UTF-8"?>
<svg id="Layer_2" xmlns="http://www.w3.org/2000/svg" viewBox="0 0 108.9 108.89">
  <defs>
    <style>
      .cls-1 {
        fill: #b48dff;
      }
    </style>
  </defs>
  <g id="Layer_1-2" data-name="Layer_1">
    <path class="cls-1" d="M98.73,53.66c22.14-.39,1.85-47.02-13.53-31.08,15.38-15.94-31.94-34.55-31.54-12.41-.4-22.14-47.02-1.85-31.08,13.52C6.64,8.32-11.98,55.63,10.16,55.24c-22.14.39-1.85,47.01,13.53,31.08-15.38,15.93,31.94,34.55,31.54,12.41.4,22.14,47.02,1.85,31.09-13.53,15.93,15.38,34.55-31.93,12.41-31.54ZM68.85,54.93h-.11c-7.7,0-13.96,6.22-14,13.92h-.69c-.04-7.7-6.3-13.92-14.01-13.92v-.77c7.74,0,14.01-6.28,14.01-14.01v-.1h.69v.1c0,7.73,6.27,14.01,14,14.01h.11v.77Z"/>
  </g>
</svg>
